<?xml version="1.0" encoding="utf-8" ?>
<svg xmlns="http://www.w3.org/2000/svg" xmlns:xlink="http://www.w3.org/1999/xlink" width="1024" height="1024">
	<path fill="white" transform="scale(2 2)" d="M202.001 100.557L201.99 83.3412C201.972 66.317 203.087 56.597 222.663 56.0564L271.338 56.0473C283.281 56.0476 304.278 52.2058 308.762 66.9279C310.184 71.5994 309.507 77.5815 309.505 82.4181L309.486 100.557C323.448 103.483 355.987 122.948 364.329 132.31C369.265 127.597 381.165 120.814 387.503 117.069C405.677 106.33 411.743 123.531 419.274 136.041L447.641 184.06C455.401 197.311 445.761 203.799 435.387 209.855L415.679 221.115C417.005 238.293 418.358 250.138 416.717 268.171C416.367 272.017 415.822 275.833 415.679 279.696C423.653 285.368 446.072 295.258 449.166 303.196C452.845 312.63 446.053 319.827 441.651 327.471L415.717 372.926C410.723 381.756 406.16 391.476 393.262 387.722C385.005 385.32 373.542 375.473 364.714 371.416L364.329 371.242C360.979 373.568 358.126 376.587 354.79 378.96C339.195 390.052 327.082 396.046 309.486 402.974C307.343 420.082 317.072 446.575 290.175 446.393L223.525 446.398C202.686 446.387 201.99 439.908 201.988 420.839L202.001 402.974C184.029 395.418 163.142 384.99 148.879 371.242C140.967 375.204 126.68 384.613 119.204 387.037C104.331 391.859 98.0732 374.275 92.1919 364.327L73.8028 333.422C67.6882 323.113 53.8431 308.124 67.2588 296.888C71.8588 293.035 92.6904 281.142 97.407 279.696C92.1142 263.151 93.5488 237.446 97.407 221.115L77.5585 210.476C60.4093 201.068 57.8881 196.227 68.4008 179.104C71.136 174.649 73.9146 170.217 76.5589 165.707L93.0015 137.502C97.2563 130.154 102.375 116.952 111.553 115.009C118.915 113.45 141.976 127.663 148.879 132.31C161.54 118.626 184.828 106.56 202.001 100.557ZM241.249 86.6471L233.494 86.6471L233.524 104.467C233.548 124.946 230.852 122.799 212.988 128.678C197.801 133.677 182.967 142.313 171.092 152.914C165.479 157.925 159.148 166.986 151.149 166.876C145.121 166.794 127.211 153.823 120.458 150.454L106.229 174.907C103.891 178.903 101.838 183.196 99.1212 186.945C103.653 189.235 107.937 192.017 112.366 194.498C130.518 204.667 132.666 204.685 127.837 225.51C124.38 240.419 124.361 257.012 126.69 272.024C127.899 279.82 131.669 288.507 127.6 296.036C124.472 301.823 105.648 309.827 99.1212 314.509C102.157 322.709 115.417 341.495 120.458 350.566C126.791 346.795 140.458 338.178 146.906 336.507C156.932 333.909 162.094 341.489 168.891 347.294C180.486 357.195 193.411 365.498 207.655 371.066C227.718 378.909 232.892 375.623 232.867 398.993L232.846 415.62L269.107 415.62L278.538 415.62L278.516 399.994C278.517 377.225 282.291 379.258 301.579 372.326C315.781 367.222 329.774 359.593 341.188 349.75C347.068 344.68 353.315 336.083 361.681 336.211C368.538 336.315 385.119 347.271 391.717 351.693C397.803 340.65 405.847 324.764 412.943 314.586L412.996 314.509C408.587 311.037 403.489 308.232 398.662 305.391C377.194 292.754 383.105 290.778 385.607 269.26C387.318 254.546 386.926 239.545 384.196 224.976C382.953 218.342 380.215 210.342 384.93 204.422C388.447 200.006 407.137 189.23 412.996 186.172C410.896 183.509 409.223 180.483 407.477 177.582L399.667 164.412C396.935 159.77 393.888 155.411 391.717 150.454C382.053 155.027 367.94 168.852 358.14 165.564C352.694 163.737 344.493 154.5 339.367 150.548C328.268 141.989 316.079 134.983 302.951 130.053C295.884 127.4 283.303 126.382 279.639 118.689C277.163 113.492 278.097 93.5155 278.11 86.6471L241.249 86.6471Z"/>
	<path fill="white" transform="scale(2 2)" d="M261.811 327.51C220.48 329.119 185.447 303.286 180.126 261.215C174.351 215.562 205.493 180.39 250.267 174.728C292.258 173.102 327.681 201.086 332.16 243.688C336.806 287.886 305.19 322.962 261.811 327.51ZM252.949 205.599C211.508 210.052 194.979 260.6 226.7 285.807C236.576 293.654 247.807 296.897 260.312 296.235C300.968 291.413 318.094 241.363 284.171 215.083C275.976 208.734 263.395 204.251 252.949 205.599Z"/>
</svg>
