<?xml version="1.0" encoding="utf-8" ?>
<svg xmlns="http://www.w3.org/2000/svg" xmlns:xlink="http://www.w3.org/1999/xlink" width="1024" height="1024">
	<path fill="white" transform="scale(2 2)" d="M120.837 206.408C116.682 204.229 112.88 201.089 109.552 197.801C72.8246 161.521 99.7898 96.8416 149.754 96.875C152.905 96.2369 156.342 96.5149 159.503 96.9264C192.591 101.233 216.495 131.371 211.971 164.645C209.45 183.185 199.284 195.586 185.052 206.408C189.095 207.929 193.095 209.581 197.051 211.315C207.845 174.142 246.657 154.035 282.344 171.41C298.425 179.24 310.009 193.524 315.748 210.309C319.517 208.74 323.254 207.444 327.204 206.408C324.754 204.22 321.994 202.382 319.455 200.295C271.708 161.045 315.54 79.7431 377.713 99.6148C427.05 115.384 434.96 183.406 390.403 206.408C419.425 216.23 442.748 243.563 449.396 273.393C450.041 276.285 450.466 279.254 451.408 282.068L451.543 282.46C451.816 288.794 452.453 322.451 450.881 327.772C447.342 339.746 436.561 339.506 426.791 339.509L355.949 339.507C357.352 350.212 357.494 360.366 357.491 371.153C357.479 410.72 349.327 405.703 316.701 405.701L206.035 405.697C193.354 405.696 166.694 409.165 157.91 398.732C152.808 392.672 154.194 384.124 154.191 376.785C154.185 363.48 154.253 352.69 155.339 339.507L85.0526 339.526C62.0291 339.701 60.2524 334.64 60.2491 311.193C60.2471 297.25 59.5734 283.118 63.3218 269.546C69.6598 246.596 85.3423 226.956 105.388 214.427C110.369 211.314 115.767 209.285 120.837 206.408ZM357.474 131.33C327.186 130.567 324.726 182.389 361.028 181.265C386.26 176.479 393.445 148.026 372.68 134.629C368.806 132.129 362.062 129.591 357.474 131.33ZM149.754 131.33C114.863 136.484 124.454 185.709 156.191 181.265C190.408 175.492 179.539 126.461 149.754 131.33ZM253.023 200.812C216.788 207.417 225.323 257.688 259.338 254.127C296.37 247.57 286.559 197.877 253.023 200.812ZM150.88 235.142C118.26 235.091 95.5676 265.154 95.5312 296.364L95.5735 304.481L151.858 304.481L169.42 304.481C179.978 284.334 190.051 280.139 206.594 268.964C201.109 255.613 190.521 245.145 177.197 239.548C170.825 236.872 157.675 233.324 150.88 235.142ZM353.658 235.142C332.445 238.523 313.281 249.1 305.206 269.826C320.023 277.958 333.908 290.041 342.901 304.481L369.298 304.481L416.706 304.481C416.721 289.648 416.803 278.316 409.05 264.891C398.124 245.974 378.55 235.092 356.608 235.127L353.658 235.142ZM250.18 291.227C217.855 295.715 191.883 319.222 188.927 352.306C188.361 358.634 188.634 365.133 188.65 371.485L262.375 371.485L303.085 371.495C309.691 371.497 316.545 371.883 323.129 371.485C323.14 363.388 323.525 355.095 322.459 347.049C317.925 312.819 284.069 288.483 250.18 291.227Z"/>
</svg>
