<?xml version="1.0" encoding="utf-8" ?>
<svg xmlns="http://www.w3.org/2000/svg" xmlns:xlink="http://www.w3.org/1999/xlink" width="1024" height="1024">
	<path fill="white" transform="scale(2 2)" d="M261.375 412.884L152.279 412.888C141.72 412.887 140.354 414.755 132.403 407.434C57.7972 338.739 51.3737 222.772 121.152 147.468C156.36 109.473 201.178 90.7957 252.137 88.856C319.099 88.6323 377.941 119.618 413.415 177.406C461.866 256.336 442.352 353.138 373.891 412.884C369.836 413.094 365.686 412.89 361.618 412.889L261.375 412.884ZM244.217 108.482C210.094 107.752 170.281 128.438 145.209 149.846C152.214 156.782 159.967 163.42 166.383 170.892C162.432 173.941 156.539 180.814 153.287 184.841C148.283 179.115 138.274 167.937 132.036 163.616C128.275 166.963 125.118 171.722 122.141 175.767C102.866 201.947 94.9868 228.763 91.7701 260.279L123.243 260.279L123.243 278.974L91.7701 278.974C90.5407 301.303 102.057 333.965 112.528 352.751C116.096 359.153 120.665 364.916 124.213 371.319C130.898 363.658 138.938 355.325 146.022 347.855C149.399 351.166 156.156 358.725 159.633 361.17C152.382 368.959 143.916 378.003 136.212 385.356C139.384 388.122 142.135 391.289 145.209 394.154L248.938 394.154L352.559 394.164C356.954 394.171 361.431 394.369 365.816 394.154C369.995 391.251 373.8 387.081 377.293 383.398C403.144 356.131 420.404 316.946 420.47 278.974L388.787 278.974L388.787 260.279L420.47 260.279C418.222 226.425 402.871 188.298 379.329 163.616C372.416 170.162 364.652 177.566 358.629 184.841C354.769 179.764 349.771 175.537 345.405 170.892C352.681 164.06 359.18 156.333 366.761 149.846C344.245 127.555 296.392 107.083 265.805 108.482L265.805 135.681L246.025 135.681C246.032 130.622 247.702 107.426 244.217 108.482Z"/>
	<path fill="white" transform="scale(2 2)" d="M278.085 239.397C282.208 234.133 289.305 227.853 294.17 222.866L311.853 204.964C315.527 201.272 319.237 196.05 324.341 194.304C332.912 193.215 339.401 202.081 334.119 209.148C331.118 213.163 324.675 218.556 320.9 222.332L290.374 253.216C291.607 256.215 292.776 259.211 293.495 262.382C301.203 296.381 264.058 321.819 233.63 301.898C206.915 283.513 214.162 240.486 246.965 233.453C258.275 231.028 268.46 233.152 278.085 239.397ZM253.051 250.831C227.415 254.902 232.075 292.988 258.343 290.426C284.492 285.874 280.088 248.898 253.051 250.831Z"/>
</svg>
