<?xml version="1.0" encoding="utf-8" ?>
<svg xmlns="http://www.w3.org/2000/svg" xmlns:xlink="http://www.w3.org/1999/xlink" width="1024" height="1024">
	<path fill="white" transform="scale(2 2)" d="M163.5 255.711C143.316 232.85 118.204 220.8 117.541 185.147C117.161 164.708 117.527 144.197 117.522 123.751L117.511 104.368C117.511 99.4083 117.23 94.2298 118.168 89.3429C121.054 74.2949 133.905 62.2212 149.552 61.9964C159.44 61.359 166.749 64.958 174.61 70.5046C182.38 65 188.251 61.657 198.095 61.9272C221.048 62.5572 231.76 80.3755 231.056 101.799C241.416 99.0493 249.245 99.4876 259.891 99.4878L326.501 99.4873C347.987 99.4818 360.966 98.7573 378.487 113.692C383.511 113.852 388.583 113.703 393.612 113.701L422.815 113.684C435.691 113.662 445.907 109.467 446.124 125.011C446.386 143.868 446.14 162.765 446.138 181.625L446.157 197.198C446.193 204.735 447.558 212.416 437.727 213.824C431.967 214.649 424.501 214.119 418.598 214.12L380.695 214.111C376.682 218.024 372.83 222.142 368.888 226.132L348.728 246.428C365.941 265.486 387.084 275.98 392.993 303.064C394.816 311.417 394.294 320.159 394.293 328.663L394.299 390.884C394.303 396.857 394.546 402.918 394.243 408.878C393.384 425.783 377.902 441.234 360.618 440.239L360.361 440.257C352.183 440.78 344.462 436.378 338.517 431.169C323.7 443.459 304.591 443.743 290.721 429.722C282.73 421.644 281.439 412.111 281.477 401.297C268.034 405.578 260.69 404.39 246.684 404.385L180.736 404.389C168.557 404.392 157.699 404.422 146.39 399.162C142.465 397.336 137.221 392.395 133.242 392.067C128.13 391.647 122.763 391.986 117.623 391.987L86.9573 391.99C78.6974 391.997 66.1191 394.839 65.9961 382.607L65.9903 305.567C65.9968 283.888 72.3016 288.711 91.8998 288.715L130.337 288.728C136.288 281.067 156.935 260.467 163.5 255.711ZM148.447 77.572C131.188 80.7895 133.263 96.9643 133.259 109.753L133.262 172.201C133.272 199.067 134.872 204.799 153.519 222.981C161.594 230.854 170.4 238.645 177.651 247.303C190.852 244.089 200.582 244.727 213.946 244.747C206.926 237.296 199.54 230.185 192.268 222.982L172.949 203.559C168.695 199.303 156.051 188.904 156.284 183.332C156.476 178.737 160.168 175.032 164.873 175.705C170.153 176.461 176.075 184.171 179.764 187.892L224.127 232.733C229.581 238.383 234.579 244.787 243.137 244.728C251.205 244.673 257.375 237.642 257.055 229.706C256.729 221.595 250.674 216.867 245.376 211.513L225.44 191.404C215.926 181.908 214.804 184.809 214.978 170.446C215.025 166.595 214.998 162.743 215 158.892L215.002 109.162C214.997 95.9656 216.71 76.6516 196.118 77.9717C185.784 78.6342 182.714 88.274 173.802 87.9579C164.816 87.6392 162.759 75.854 148.447 77.572ZM245.198 115.346C225.084 116.42 226.196 144.64 243.017 147.442C247.401 148.172 255.902 147.704 260.651 147.701L297.131 147.687C300.912 147.686 307.38 147.025 310.819 148.305C318.851 151.295 316.416 163.315 307.538 163.689C297.262 164.122 286.813 163.747 276.521 163.746L254.392 163.738C245.901 163.732 239.298 163.625 231.056 161.395L231.056 175.092C238.435 180.912 247.948 191.636 255.067 198.502C259.515 198.711 264.007 198.508 268.461 198.506L294.069 198.498C298.8 198.485 304.584 197.939 309.152 198.738C317.668 200.229 317.453 212.641 308.992 213.992C304.913 214.643 300.328 214.122 296.175 214.115L269.383 214.111C274.335 225.015 274.725 235.037 269.383 245.648L280.78 245.648L301.606 245.665C316.248 245.666 326.849 245.487 337.876 234.524L358.14 213.99C365.302 206.688 370.611 198.42 381.72 198.38L430.31 198.502L430.31 129.396L396.706 129.406C380.21 129.41 377.478 132.808 364.972 123.298C354.438 115.288 344.429 115.335 331.993 115.336L245.198 115.346ZM334.773 255.711C323.42 261.27 316.683 261.75 304.371 261.625C310.275 270.101 334.717 292.533 343.153 300.703C348.049 305.443 364.3 317.409 353.337 324.344C344.799 329.746 335.212 315.391 329.563 309.806L296.412 276.805C287.119 267.477 279.19 255.272 264.33 263.786C253.528 269.976 252.191 284.25 260.677 292.73C272.499 292.677 280.288 292.508 289.465 301.552C297.007 308.984 299.881 318.972 298.762 329.311C297.764 336.407 294.673 344.081 288.705 348.41C300.834 360.908 298.44 369.385 297.82 384.265C297.212 398.858 293.756 423.826 315.202 424.24C326.699 424.462 330.764 413.065 338.623 413.013C347.442 412.954 351.203 427.138 364.41 424.132C378.582 420.907 378.521 407.609 378.501 395.968L378.495 323.346C378.512 308.126 377.493 296.97 365.906 285.463C360.965 280.555 335.886 255.98 335.115 255.67L334.773 255.711ZM197.322 260.841C180.159 261.586 176.779 264.606 164.997 276.316C160.93 280.358 140.631 302.552 136.316 303.876C131.38 305.39 90.0832 304.711 81.8116 304.524L81.8116 376.166L120.008 376.176C140.474 376.164 134.086 373.397 150.803 383.024C162.234 389.606 172.007 388.505 184.744 388.508L252.204 388.505C257.866 388.503 264.007 388.979 269.591 388.108C280.832 386.356 285.055 374.553 280.78 365.044C275.019 355.472 266.62 357.131 256.919 357.135L219.781 357.17C214.726 357.173 204.528 357.777 200.252 356.694C193.848 355.072 192.783 345.167 198.464 341.917C202.833 339.417 211.34 340.95 216.232 340.926L254.399 340.906C259.57 340.907 267.984 341.698 272.614 339.933C281.53 336.534 285.249 325.068 280.803 316.798C274.918 305.85 260.773 308.729 250.5 308.729L213.508 308.736C209.474 308.732 204.07 309.439 200.265 308.425C193.939 306.738 192.452 297.186 198.365 293.966C202.921 291.486 234.718 292.94 241.787 292.73C238.1 281.372 237.354 271.097 245.198 260.841L197.322 260.841Z"/>
</svg>
